<svg width="18" height="18" viewBox="-3 -3 24 24" fill="none" xmlns="http://www.w3.org/2000/svg">
<path d="M8.99542 13.7822C8.81084 13.7822 8.65431 13.7165 8.52584 13.5851C8.39737 13.4536 8.33313 13.2956 8.33313 13.1111C8.33313 12.9266 8.39882 12.77 8.53021 12.6416C8.6616 12.5131 8.81959 12.4489 9.00417 12.4489C9.18875 12.4489 9.34528 12.5145 9.47375 12.6459C9.60223 12.7773 9.66646 12.9353 9.66646 13.1199C9.66646 13.3045 9.60077 13.461 9.46938 13.5895C9.33799 13.7179 9.18001 13.7822 8.99542 13.7822ZM8.99542 9.66677C8.81084 9.66677 8.65431 9.60107 8.52584 9.46968C8.39737 9.3383 8.33313 9.18031 8.33313 8.99573C8.33313 8.81114 8.39882 8.65461 8.53021 8.52614C8.6616 8.39767 8.81959 8.33343 9.00417 8.33343C9.18875 8.33343 9.34528 8.39913 9.47375 8.53052C9.60223 8.66191 9.66646 8.81989 9.66646 9.00448C9.66646 9.18906 9.60077 9.34559 9.46938 9.47406C9.33799 9.60253 9.18001 9.66677 8.99542 9.66677ZM8.99542 5.55135C8.81084 5.55135 8.65431 5.48566 8.52584 5.35427C8.39737 5.22288 8.33313 5.06489 8.33313 4.88031C8.33313 4.69573 8.39882 4.5392 8.53021 4.41073C8.6616 4.28225 8.81959 4.21802 9.00417 4.21802C9.18875 4.21802 9.34528 4.28371 9.47375 4.4151C9.60223 4.54663 9.66646 4.70461 9.66646 4.88906C9.66646 5.07364 9.60077 5.23017 9.46938 5.35864C9.33799 5.48711 9.18001 5.55135 8.99542 5.55135Z" fill="currentColor"/>
</svg>
