<svg preserveAspectRatio="none" overflow="visible" style="display: block;" width="18" height="18" viewBox="0 0 18 18" fill="none" xmlns="http://www.w3.org/2000/svg">
<g id="Icon">
<path id="Vector" d="M3.75654 15.5834C3.3814 15.5834 3.06432 15.4538 2.80529 15.1948C2.54626 14.9358 2.41675 14.6187 2.41675 14.2436V3.75648C2.41675 3.38134 2.54626 3.06426 2.80529 2.80523C3.06432 2.5462 3.3814 2.41669 3.75654 2.41669H8.13779C8.29154 2.41669 8.42029 2.46814 8.52404 2.57106C8.62765 2.67384 8.67946 2.80148 8.67946 2.95398C8.67946 3.10648 8.62765 3.23558 8.52404 3.34127C8.42029 3.4471 8.29154 3.50002 8.13779 3.50002H3.75654C3.69237 3.50002 3.63362 3.52676 3.58029 3.58023C3.52682 3.63356 3.50008 3.69231 3.50008 3.75648V14.2436C3.50008 14.3077 3.52682 14.3665 3.58029 14.4198C3.63362 14.4733 3.69237 14.5 3.75654 14.5H14.2436C14.3078 14.5 14.3665 14.4733 14.4199 14.4198C14.4733 14.3665 14.5001 14.3077 14.5001 14.2436V9.86231C14.5001 9.70856 14.5515 9.57981 14.6542 9.47606C14.7572 9.37245 14.8849 9.32065 15.0374 9.32065C15.1899 9.32065 15.319 9.37245 15.4247 9.47606C15.5305 9.57981 15.5834 9.70856 15.5834 9.86231V14.2436C15.5834 14.6187 15.4539 14.9358 15.1949 15.1948C14.9358 15.4538 14.6188 15.5834 14.2436 15.5834H3.75654ZM14.5001 4.27398L7.45529 11.319C7.33987 11.4343 7.21564 11.4898 7.08258 11.4856C6.94966 11.4813 6.82279 11.4188 6.70196 11.2981C6.58126 11.1773 6.52091 11.0483 6.52091 10.9111C6.52091 10.7738 6.58126 10.6448 6.70196 10.524L13.7261 3.50002H11.5417C11.388 3.50002 11.2593 3.44863 11.1557 3.34585C11.052 3.24294 11.0001 3.11523 11.0001 2.96273C11.0001 2.81023 11.052 2.68113 11.1557 2.57544C11.2593 2.4696 11.388 2.41669 11.5417 2.41669H14.9134C15.1047 2.41669 15.2641 2.48058 15.3917 2.60835C15.5195 2.73599 15.5834 2.89544 15.5834 3.08669V6.45835C15.5834 6.6121 15.532 6.74078 15.429 6.8444C15.3263 6.94815 15.1986 7.00002 15.0461 7.00002C14.8936 7.00002 14.7645 6.94815 14.6588 6.8444C14.553 6.74078 14.5001 6.6121 14.5001 6.45835V4.27398Z" fill="#00142B"/>
</g>
</svg>
